<svg id="logo"
    xmlns="http://www.w3.org/2000/svg" viewBox="0 0 176.89941 36.50452">
    <defs>
        <style>.cls-1{fill:#ffffff;}.cls-2{fill:#3273dc;}</style>
    </defs>
    <path id="n" class="cls-1" d="M14.75977,36.50342V9.144H11.87988V36.50342H0V0H11.87988V2.30371Q14.83155.00025,20.73584,0A7.01306,7.01306,0,0,1,24.624,1.22412a4.00734,4.00734,0,0,1,2.01563,3.38379V36.50342Z"/>
    <path id="o" class="cls-1" d="M56.30273,31.96826q0,4.53516-5.9038,4.53516h-14.832q-5.90478,0-5.9038-4.53516V4.60791Q29.66309.001,35.56689,0h14.832q5.90257,0,5.9038,4.60791ZM44.42285,9.144H41.543V27.43213h2.87988Z"/>
    <path id="t" class="cls-1" d="M61.27,0H73.1499V27.43213h2.95215V13.67969H87.91016V31.96826q0,4.6084-5.9043,4.53516h-14.832q-5.90406,0-5.90381-4.53516"/>
    <rect id="t-2" class="cls-1" x="58.31787" y="2.30371" width="29.59229" height="9.07227"/>
    <path id="e" class="cls-1" d="M117.57324,31.96826q0,4.53516-5.90332,4.53516h-14.832q-5.90625,0-5.9043-4.53516V4.60791Q90.93359.001,96.83789,0h14.832q5.90185,0,5.90332,4.60791V22.82373H102.81348v4.6084h2.87988V25.12842h11.87988ZM105.69336,9.144h-2.87988v4.53565h2.87988Z"/>
    <path id="j" class="cls-1" d="M147.23633,31.96826q0,4.6084-5.9043,4.53516H126.5q-5.90333.07178-5.90332-4.53516V18.21582h11.87988v9.21631h2.87989V0h11.87988Z"/>
    <path id="s" class="cls-1" d="M176.89941,31.96826q0,4.53516-5.90332,4.53516h-14.832q-5.90625,0-5.90429-4.53516V25.12842h11.87988v2.30371h2.87988v-4.6084h-8.85547q-5.90625,0-5.90429-4.60791V4.60791Q150.25977.001,156.16406,0h14.832q5.90185,0,5.90332,4.60791V11.376H165.01953V9.144h-2.87988v4.53565h8.85644q5.90185,0,5.90332,4.53613Z"/>
</svg>